<svg viewBox="0 0 1920 1080" id="text-base" xmlns="http://www.w3.org/2000/svg" style="background-color:#ffffff;" width="1920" height="1080">
        <rect width="100%" height="100%" id="textBg" style="fill: rgb(232, 232, 232);"/>
        <style type="text/css">
            @import url('https://fonts.googleapis.com/css2?family=Nunito:wght@300;500&amp;display=swap');
            </style>
        
            <style>
            .small { font: italic 13px sans-serif; }
            .heavy { font: bold 30px sans-serif; }
            </style>
            <defs>
                <rect id="rect" width="100%" height="100%" fill="none"/>
                <clipPath id="clip">
                    <use xmlns:xlink="http://www.w3.org/1999/xlink" xlink:href="#rect"/>
                </clipPath>
            </defs>

            <g clip-path="url(#clip)">
                <path id="spiral" d="M 960,540 Q 972.3561533534706,540 979.4855715851498,551.25 Q 987.099221719001,563.2641028653961 982.5,578.9711431702997 Q 977.3876198508585,596.4306974085324 960,607.5 Q 940.4652142532292,619.9362308553588 915,617.9422863405995 Q 886.5256765812359,615.7127264229905 862.5721420742507,596.25 Q 836.0438300222355,574.6952152653494 825,540.0000000000001 Q 812.8913795394633,501.9596469160707 823.6009989039509,461.2500000000001 Q 835.2365497430554,417.0206814581456 869.9999999999999,384.11542731880104 Q 907.471475186691,348.64689916981786 960,337.5 Q 1016.2387219184336,325.56577255134766 1072.5,345.14428414850136 Q 1132.388035924169,365.9848808404606 1174.3412874366486,416.25000000000006 Q 1218.778101144563,469.49072999286216 1230,540.0000000000002 Q 1241.8354473343782,614.3643087952623 1213.3124306069483,686.2500000000002 Q 1183.3416821625015,761.7843654018361 1117.4999999999998,812.7980021920985 Q 1048.5414687359514,866.2265500656456 959.9999999999995,877.5 Q 867.5330637835963,889.2732559771227 779.9999999999997,851.7691453623978 Q 688.8187906491952,812.701963046796 628.7452830524521,731.2499999999999 Q 566.310190105527,646.5960304386829 555,540.0000000000001 Q 543.2691454208756,429.43930030167803 589.7741398821522,326.25000000000034 Q 637.9201480543272,219.4194766732545 734.9999999999994,150.28856829700305 Q 835.3380813079651,78.83746318580438 959.999999999999,67.50000000000006 Q 1088.6505548148643,55.7997875826851 1207.4999999999986,111.31742512670229 Q 1329.9822331519797,168.53203151481887 1408.168146458446,281.2499999999985 Q 1488.6415731519082,397.265798630797 1500,539.9999999999978 Q 1511.677080995491,686.7385274832204 1447.1392896287477,821.2499999999976 Q 1380.8625085300846,959.3859236264022 1252.5000000000025,1046.6248612138947 Q 1120.8103950281406,1136.1249914358705 960.0000000000035,1147.4999999999998 Q 795.1744600726574,1159.1590219676575 645.0000000000036,1085.5960043841983 Q 491.2088078756058,1010.2613292007155 394.9184240306563,866.2500000000039 Q 296.38843583417474,718.8891317625888 285.00000000000034,540.0000000000052 Q 273.3554574722267,357.0879537016899 355.9472808603514,191.25000000000523 Q 440.3368623599979,21.802287919888613 599.9999999999945,-83.53829072479232 Q 763.0303962573922,-191.10047779109345 959.999999999993,-202.49999999999966 Q 1160.9982836582224,-214.13268014443588 1342.499999999993,-122.50943389509905 Q 1527.605230626022,-29.067110210660303 1641.9950054802407,146.2499999999929 Q 1758.591173842708,324.94869334905707 1769.9999999999995,539.9999999999908 Q 1781.622787405653,759.0843811669638 1680.9661486505497,956.2499999999911 Q 1578.4726985449306,1157.0135538632674 1387.500000000009,1280.4517202356892 Q 1193.1339110763017,1406.0832571230308 960.0000000000116,1417.4999999999995 Q 722.8295886480901,1429.1144133297862 510.0000000000111,1319.4228634060005 Q 293.5774673932409,1207.879524010076 161.09156500886252,1001.2500000000114 Q 26.423559472751776,791.217193622022 15.000000000000568,540.0000000000142 Q 3.392765624104186,284.743584293421 122.12042183854862,56.25000000001347 Q 242.7126829354455,-175.83205109604796 464.99999999998636,-317.36514974658564 Q 690.6990020806277,-461.07051066707584 959.9999999999828,-472.4999999999993 Q 1233.3424181284527,-484.1010125338273 1477.499999999984,-356.3362929169024 Q 1725.2420185719404,-226.69588077999106 1875.8218645020338,11.249999999983743 Q 2028.5653057536913,252.61478847813783 2039.9999999999993,539.9999999999798 Q 2051.5955688883428,831.4284322703534 1914.7930076723537,1091.2499999999811 " fill="none" stroke="none" stroke-width="3"/>
                <text id="text">
                    <textPath id="spiraledText" xmlns:xlink="http://www.w3.org/1999/xlink" xlink:href="#spiral" font-size="141px" font-family="JetBrains Mono, Arial, Helvetica, sans-serif" stroke="#171717" stroke-width="8" fill="#171717">Dmytro Tihunov 🎉 Dmytro Tihunov 🎉 Dmytro Tihunov 🎉 Dmytro Tihunov 🎉 Dmytro Tihunov 🎉 Dmytro Tihunov 🎉 Dmytro Tihunov 🎉 Dmytro Tihunov 🎉 Dmytro Tihunov 🎉 Dmytro Tihunov 🎉 </textPath>
                </text>
            </g>
      </svg>